<?xml version="1.0" encoding="UTF-8"?>
<svg width="1248.9" height="851.36" version="1.0" xmlns="http://www.w3.org/2000/svg" xmlns:xlink="http://www.w3.org/1999/xlink">
 <g transform="matrix(.98049 0 0 .98049 19.506 8.3051)">
  <g transform="rotate(14.615 1111.8 -1226.7)">
   <path d="m1472.2-52.945-281.83 276.16 13.035 13.058 281.8-276.16z" fill="#08ca00" fill-rule="evenodd"/>
  </g>
  <g transform="matrix(.70882 .009357 -.0094377 .70275 39.368 -38.382)">
   <g transform="translate(-11.42)">
    <g transform="rotate(47.059 88.834 583.37)">
     <path d="m439.03 451.7-484.5 1.0854h-13.067v26.133h13.067l484.5-1.0854h13.067v-26.133z" fill="#f00" fill-rule="evenodd"/>
    </g>
   </g>
  </g>
  <path d="m817.36 8.4359-4.3556 340.1-22.509 18.874-314.05-4.1458-6.0958-0.0804-3.0951 5.2307-76.847 130.07-1.4025 2.3712-0.0371 2.7641-2.9056 250.49-0.066 4.9193 3.7621 3.1657 46.687 39.368 13.612-15.869-42.925-36.202 2.8027-242.83 72.35-122.47 312.49 4.1252 5.5183-4.6747 33.494-27.819 4.5767-347.12z" fill="#08ca00" fill-rule="evenodd"/>
  <path d="m373.73 183.08 139.93 137.76 17.759 76.609-43.078 101.93-0.90347 2.167 0.11031 2.3444 3.5663 75.817 0.18311 3.9619 2.7742 2.8247 196.64 200.48 3.0539 3.1096 4.395 0.0347 45.982 0.37263 0.16185-20.85-41.61-0.33847-190.76-194.5-3.2722-69.557 43.542-103.05 1.3911-3.2851-0.94641-3.4331l-19.763-88.531-143.71-139.18z" fill="#fcce00" fill-rule="evenodd"/>
  <path d="m644.28 8.804-6.0446 441.55-46.425 46.714-274.41-3.107-4.2056-0.0555-3.0866 2.841-153.19 140.92c4.784 5.0848 8.842 9.4303 13.626 14.515l150.83-137.34 274.67 3.1339 4.4655 0.059 3.1383-3.1684 52.51-52.842 2.9703-2.9831 0.0563-4.1931 6.1012-445.77-21.005-0.27728z" fill="#f00" fill-rule="evenodd"/>
  <path d="m389.41 744.52-74.87 75.966 15.023 13.471 74.911-75.934z" color="#000000" fill="#08ca00" style="text-decoration-line:none;text-indent:0;text-transform:none"/>
 </g>
</svg>
